<svg xmlns="http://www.w3.org/2000/svg" version="1.1" xmlns:xlink="http://www.w3.org/1999/xlink" xmlns:svgjs="http://svgjs.dev/svgjs" width="1440" height="560" preserveAspectRatio="none" viewBox="0 0 1440 560"><g mask="url(&quot;#SvgjsMask1002&quot;)" fill="none"><rect width="1440" height="560" x="0" y="0" fill="rgba(240, 232, 255, 1)"></rect><path d="M836.3944806019798 188.18333050591448L894.3813424776331 105.36950930096984 741.1671797323894 59.796127089962226z" fill="rgba(28, 83, 142, 0.4)" class="triangle-float2"></path><path d="M126.429,404.579C147.648,403.466,167.074,393.009,177.852,374.698C188.795,356.108,189.867,333.284,179.544,314.342C168.762,294.557,148.959,280.657,126.429,280.336C103.369,280.008,82.713,293.15,70.629,312.793C57.883,333.513,52.094,359.843,64.731,380.63C77.014,400.834,102.816,405.817,126.429,404.579" fill="rgba(28, 83, 142, 0.4)" class="triangle-float1"></path><path d="M571.442,456.914C602.461,456.746,633.964,447.513,650.657,421.369C668.584,393.292,671.703,356.167,653.645,328.174C636.724,301.943,602.601,296.709,571.442,298.572C543.952,300.216,519.722,314.021,504.669,337.082C487.819,362.897,475.718,395.308,490.724,422.237C506.002,449.655,540.055,457.084,571.442,456.914" fill="rgba(28, 83, 142, 0.4)" class="triangle-float2"></path><path d="M1245.3440633568862 219.41255807709683L1193.6388722312063 316.6558794229534 1290.8821935770627 368.3610705486333 1342.5873847027428 271.11774920277674z" fill="rgba(28, 83, 142, 0.4)" class="triangle-float1"></path><path d="M1204.5366992173338 103.28521310190698L1170.2592257857193 222.8249690456919 1289.7989817295042 257.1024424773062 1324.0764551611187 137.56268653352134z" fill="rgba(28, 83, 142, 0.4)" class="triangle-float1"></path><path d="M538.6875553145059 518.3169976273996L565.6626059677043 569.0496892949277 628.2741181423971 503.220767481366z" fill="rgba(28, 83, 142, 0.4)" class="triangle-float2"></path><path d="M791.7128856208224 238.01510062478837L875.00961726516 220.30983374811737 857.3043503884891 137.01310210377966 774.0076187441514 154.71836898045063z" fill="rgba(28, 83, 142, 0.4)" class="triangle-float1"></path><path d="M329.353,204.971C354.068,206.084,380.624,201.55,394.294,180.929C409.228,158.4,408.626,128.875,395.437,105.282C381.923,81.108,357.045,65.144,329.353,64.76C300.998,64.367,272.733,78.058,260.02,103.407C248.264,126.848,259.027,153.843,273.812,175.502C286.477,194.054,306.913,203.96,329.353,204.971" fill="rgba(28, 83, 142, 0.4)" class="triangle-float1"></path><path d="M1153.743,190.303C1184.067,189.564,1208.618,167.896,1222.997,141.187C1236.574,115.968,1238.896,85.07,1223.342,61.02C1208.864,38.634,1180.372,32.829,1153.743,34.105C1129.628,35.261,1108.408,47.229,1094.814,67.181C1078.872,90.58,1066.162,119.172,1078.386,144.711C1091.971,173.094,1122.286,191.069,1153.743,190.303" fill="rgba(28, 83, 142, 0.4)" class="triangle-float3"></path><path d="M89.66355252367048 128.89919158138963L183.9591036573804 245.3444995503135 300.4044116263043 151.04894841660354 206.10886049259432 34.60364044767968z" fill="rgba(28, 83, 142, 0.4)" class="triangle-float1"></path><path d="M135.0941803452058 342.7475669631864L241.16895277452772 414.4430833354745 250.92340623524325 302.94917009464393z" fill="rgba(28, 83, 142, 0.4)" class="triangle-float3"></path><path d="M772.7197880777487 82.21717603312882L692.6856127243533 220.84043408708655 831.3088707783111 300.874609440482 911.3430461317064 162.25135138652422z" fill="rgba(28, 83, 142, 0.4)" class="triangle-float1"></path><path d="M1036.199,31.617C1055.814,32.509,1075.176,23.338,1084.999,6.337C1094.826,-10.672,1093.195,-32.088,1082.542,-48.593C1072.71,-63.826,1054.303,-70.232,1036.199,-69.271C1019.775,-68.399,1005.945,-58.295,997.663,-44.086C989.313,-29.76,987.005,-12.556,994.527,2.222C1002.792,18.458,1017.999,30.789,1036.199,31.617" fill="rgba(28, 83, 142, 0.4)" class="triangle-float2"></path><path d="M1164.363,475.299C1181.186,475.447,1198.903,469.987,1206.958,455.217C1214.769,440.893,1207.926,424.311,1199.921,410.095C1191.706,395.507,1181.061,380.789,1164.363,379.574C1145.834,378.226,1127.521,387.907,1118.548,404.174C1109.833,419.974,1113.275,439.31,1123.046,454.479C1131.997,468.375,1147.835,475.154,1164.363,475.299" fill="rgba(28, 83, 142, 0.4)" class="triangle-float3"></path></g><defs><mask id="SvgjsMask1002"><rect width="1440" height="560" fill="#ffffff"></rect></mask><style>
                @keyframes float1 {
                    0%{transform: translate(0, 0)}
                    50%{transform: translate(-10px, 0)}
                    100%{transform: translate(0, 0)}
                }

                .triangle-float1 {
                    animation: float1 5s infinite;
                }

                @keyframes float2 {
                    0%{transform: translate(0, 0)}
                    50%{transform: translate(-5px, -5px)}
                    100%{transform: translate(0, 0)}
                }

                .triangle-float2 {
                    animation: float2 4s infinite;
                }

                @keyframes float3 {
                    0%{transform: translate(0, 0)}
                    50%{transform: translate(0, -10px)}
                    100%{transform: translate(0, 0)}
                }

                .triangle-float3 {
                    animation: float3 6s infinite;
                }
            </style></defs></svg>